<svg xmlns="http://www.w3.org/2000/svg" viewBox="0 0 300 196" role="img" aria-label="Proverá — Aluguel de Equipamentos">
  <title>Proverá — Aluguel de Equipamentos</title>
  <defs><clipPath id="emb"><rect width="100" height="100" rx="6"/></clipPath></defs>
  <g transform="translate(106,14) scale(0.88)">
    <rect width="100" height="100" rx="6" fill="#BC000E"/>
    <g clip-path="url(#emb)" fill="#FFFFFF">
      <polygon points="56,-3 79,-3 100,40 77,75 60,75 74,40"/>
      <polygon points="35,39 52,39 21,100 2,100"/>
    </g>
  </g>
  <path fill="#BC000E" d="M69.82249999999999 127.985Q69.82249999999999 131.615 68.31 134.3375Q66.7975 137.06 64.02 138.5725Q61.2425 140.085 57.6675 140.085H53.2125Q52.8825 140.085 52.8825 140.415V153.175Q52.8825 153.56 52.662499999999994 153.78Q52.442499999999995 154.0 52.0575 154.0H43.3675Q42.9825 154.0 42.7625 153.78Q42.5425 153.56 42.5425 153.175V116.325Q42.5425 115.94 42.7625 115.72Q42.9825 115.5 43.3675 115.5H57.6125Q61.2425 115.5 63.99250000000001 117.0675Q66.7425 118.63499999999999 68.2825 121.4675Q69.82249999999999 124.3 69.82249999999999 127.985ZM59.4825 128.20499999999998Q59.4825 126.39 58.4925 125.3725Q57.5025 124.355 55.8525 124.355H53.2125Q52.8825 124.355 52.8825 124.685V131.67Q52.8825 132.0 53.2125 132.0H55.8525Q57.5025 132.0 58.4925 130.98250000000002Q59.4825 129.965 59.4825 128.20499999999998Z M89.68249999999999 153.34 85.0075 139.48Q84.95249999999999 139.205 84.62249999999999 139.205H83.6325Q83.3025 139.205 83.3025 139.535V153.175Q83.3025 153.56 83.0825 153.78Q82.8625 154.0 82.47749999999999 154.0H73.7875Q73.40249999999999 154.0 73.18249999999999 153.78Q72.96249999999999 153.56 72.96249999999999 153.175V116.325Q72.96249999999999 115.94 73.18249999999999 115.72Q73.40249999999999 115.5 73.7875 115.5H88.30749999999999Q91.82749999999999 115.5 94.5225 117.03999999999999Q97.2175 118.58 98.7025 121.3575Q100.1875 124.135 100.1875 127.765Q100.1875 131.12 98.785 133.6775Q97.3825 136.235 94.85249999999999 137.665Q94.6325 137.82999999999998 94.6875 138.105L100.35249999999999 153.065Q100.4075 153.23 100.4075 153.45Q100.4075 154.0 99.6925 154.0H90.61749999999999Q89.90249999999999 154.0 89.68249999999999 153.34ZM83.3025 124.685V131.01Q83.3025 131.34 83.6325 131.34H86.5475Q88.0325 131.34 88.9675 130.405Q89.90249999999999 129.47 89.90249999999999 127.875Q89.90249999999999 126.225 88.99499999999999 125.28999999999999Q88.08749999999999 124.355 86.5475 124.355H83.6325Q83.3025 124.355 83.3025 124.685Z M103.4375 141.295V128.20499999999998Q103.4375 124.245 105.1425 121.275Q106.8475 118.305 109.9825 116.6825Q113.1175 115.06 117.2425 115.06Q121.3675 115.06 124.53 116.6825Q127.6925 118.305 129.39749999999998 121.275Q131.1025 124.245 131.1025 128.20499999999998V141.295Q131.1025 145.255 129.37 148.2525Q127.6375 151.25 124.5025 152.9Q121.3675 154.55 117.2425 154.55Q113.1175 154.55 109.9825 152.9Q106.8475 151.25 105.1425 148.2525Q103.4375 145.255 103.4375 141.295ZM120.7625 141.68V127.93Q120.7625 126.115 119.80000000000001 125.01499999999999Q118.8375 123.91499999999999 117.2425 123.91499999999999Q115.7025 123.91499999999999 114.74000000000001 125.01499999999999Q113.7775 126.115 113.7775 127.93V141.68Q113.7775 143.495 114.74000000000001 144.595Q115.7025 145.695 117.2425 145.695Q118.8375 145.695 119.80000000000001 144.595Q120.7625 143.495 120.7625 141.68Z M143.3175 153.285 134.02249999999998 116.435Q133.9675 116.325 133.9675 116.16Q133.9675 115.5 134.73749999999998 115.5H144.1975Q144.9675 115.5 145.1325 116.27000000000001L149.0375 137.61Q149.0925 137.82999999999998 149.23000000000002 137.82999999999998Q149.3675 137.82999999999998 149.42249999999999 137.61L153.2175 116.27000000000001Q153.3825 115.5 154.0975 115.5H163.2825Q163.7225 115.5 163.915 115.7475Q164.1075 115.995 163.9975 116.435L154.5925 153.285Q154.42749999999998 154.0 153.71249999999998 154.0H144.1975Q143.4825 154.0 143.3175 153.285Z M191.4475 124.355H178.02749999999997Q177.6975 124.355 177.6975 124.685V129.855Q177.6975 130.185 178.02749999999997 130.185H185.7825Q186.1675 130.185 186.3875 130.405Q186.6075 130.625 186.6075 131.01V138.16Q186.6075 138.545 186.3875 138.765Q186.1675 138.985 185.7825 138.985H178.02749999999997Q177.6975 138.985 177.6975 139.315V144.815Q177.6975 145.145 178.02749999999997 145.145H191.4475Q191.83249999999998 145.145 192.05249999999998 145.365Q192.27249999999998 145.585 192.27249999999998 145.97V153.175Q192.27249999999998 153.56 192.05249999999998 153.78Q191.83249999999998 154.0 191.4475 154.0H168.18249999999998Q167.79749999999999 154.0 167.5775 153.78Q167.3575 153.56 167.3575 153.175V116.325Q167.3575 115.94 167.5775 115.72Q167.79749999999999 115.5 168.18249999999998 115.5H191.4475Q191.83249999999998 115.5 192.05249999999998 115.72Q192.27249999999998 115.94 192.27249999999998 116.325V123.53Q192.27249999999998 123.91499999999999 192.05249999999998 124.13499999999999Q191.83249999999998 124.355 191.4475 124.355Z M212.46249999999998 153.34 207.78749999999997 139.48Q207.7325 139.205 207.40249999999997 139.205H206.41249999999997Q206.08249999999998 139.205 206.08249999999998 139.535V153.175Q206.08249999999998 153.56 205.86249999999998 153.78Q205.64249999999998 154.0 205.2575 154.0H196.56749999999997Q196.18249999999998 154.0 195.96249999999998 153.78Q195.74249999999998 153.56 195.74249999999998 153.175V116.325Q195.74249999999998 115.94 195.96249999999998 115.72Q196.18249999999998 115.5 196.56749999999997 115.5H211.08749999999998Q214.6075 115.5 217.30249999999998 117.03999999999999Q219.99749999999997 118.58 221.48249999999996 121.3575Q222.96749999999997 124.135 222.96749999999997 127.765Q222.96749999999997 131.12 221.56499999999997 133.6775Q220.16249999999997 136.235 217.6325 137.665Q217.41249999999997 137.82999999999998 217.46749999999997 138.105L223.1325 153.065Q223.18749999999997 153.23 223.18749999999997 153.45Q223.18749999999997 154.0 222.47249999999997 154.0H213.39749999999998Q212.68249999999998 154.0 212.46249999999998 153.34ZM206.08249999999998 124.685V131.01Q206.08249999999998 131.34 206.41249999999997 131.34H209.3275Q210.81249999999997 131.34 211.74749999999997 130.405Q212.68249999999998 129.47 212.68249999999998 127.875Q212.68249999999998 126.225 211.77499999999998 125.28999999999999Q210.86749999999998 124.355 209.3275 124.355H206.41249999999997Q206.08249999999998 124.355 206.08249999999998 124.685Z M247.28249999999997 153.285 246.34749999999997 149.05Q246.23749999999998 148.775 246.01749999999998 148.775H237.76749999999998Q237.54749999999999 148.775 237.43749999999997 149.05L236.55749999999998 153.285Q236.39249999999998 154.0 235.62249999999997 154.0H226.60249999999996Q226.16249999999997 154.0 225.96999999999997 153.7525Q225.77749999999997 153.505 225.88749999999996 153.065L235.67749999999998 116.215Q235.84249999999997 115.5 236.55749999999998 115.5H247.44749999999996Q248.16249999999997 115.5 248.3275 116.215L258.0625 153.065Q258.11749999999995 153.175 258.11749999999995 153.34Q258.11749999999995 154.0 257.34749999999997 154.0H248.21749999999997Q247.44749999999996 154.0 247.28249999999997 153.285ZM239.19749999999996 140.58Q239.19749999999996 140.855 239.52749999999997 140.855H244.2025Q244.58749999999998 140.855 244.53249999999997 140.47L242.05749999999998 129.03Q242.00249999999997 128.81 241.83749999999998 128.81Q241.67249999999999 128.81 241.61749999999998 129.03L239.19749999999996 140.47ZM237.49249999999995 111.70499999999998Q237.49249999999995 111.48499999999999 237.65749999999997 111.26499999999999L240.51749999999996 106.14999999999999Q240.79249999999996 105.6 241.50749999999996 105.6H248.60249999999996Q248.93249999999995 105.6 249.12499999999994 105.7375Q249.31749999999997 105.875 249.31749999999997 106.095Q249.31749999999997 106.37 249.09749999999997 106.59L245.02749999999995 111.75999999999999Q244.69749999999996 112.255 244.03749999999997 112.255H238.26249999999996Q237.49249999999995 112.255 237.49249999999995 111.70499999999998Z"/>
  <path fill="#BC000E" d="M32.59675000000002 181.8605 32.03875000000002 179.8145Q32.02325000000002 179.768 31.961250000000017 179.768H28.05525000000002Q27.993250000000018 179.768 27.977750000000018 179.8145L27.435250000000018 181.8605Q27.40425000000002 182.0 27.264750000000017 182.0H26.73775000000002Q26.66025000000002 182.0 26.62150000000002 181.95350000000002Q26.58275000000002 181.907 26.598250000000018 181.8295L29.51225000000002 171.274Q29.543250000000018 171.15 29.68275000000002 171.15H30.33375000000002Q30.473250000000018 171.15 30.50425000000002 171.274L33.418250000000015 181.8295L33.43375000000002 181.876Q33.43375000000002 182.0 33.27875000000002 182.0H32.76725000000002Q32.62775000000002 182.0 32.59675000000002 181.8605ZM28.256750000000018 179.086H31.759750000000018Q31.790750000000017 179.086 31.814000000000018 179.06275Q31.83725000000002 179.0395 31.82175000000002 179.024L30.039250000000017 172.359Q30.023750000000017 172.328 30.000500000000017 172.328Q29.97725000000002 172.328 29.96175000000002 172.359L28.19475000000002 179.024Q28.179250000000017 179.0395 28.20250000000002 179.06275Q28.22575000000002 179.086 28.256750000000018 179.086Z M38.63175000000002 181.845V171.305Q38.63175000000002 171.15 38.78675000000002 171.15H39.29825000000002Q39.45325000000002 171.15 39.45325000000002 171.305V181.2095Q39.45325000000002 181.2715 39.515250000000016 181.2715H44.10325000000002Q44.25825000000002 181.2715 44.25825000000002 181.4265V181.845Q44.25825000000002 182.0 44.10325000000002 182.0H38.78675000000002Q38.63175000000002 182.0 38.63175000000002 181.845Z M49.332250000000016 178.9465V171.305Q49.332250000000016 171.15 49.48725000000002 171.15H49.998750000000015Q50.15375000000002 171.15 50.15375000000002 171.305V179.0085Q50.15375000000002 180.078 50.76600000000002 180.73675Q51.378250000000016 181.3955 52.40125000000002 181.3955Q53.40875000000002 181.3955 54.02875000000002 180.73675Q54.648750000000014 180.078 54.648750000000014 179.0085V171.305Q54.648750000000014 171.15 54.803750000000015 171.15H55.31525000000002Q55.470250000000014 171.15 55.470250000000014 171.305V178.9465Q55.470250000000014 179.892 55.09050000000002 180.61275Q54.71075000000002 181.3335 54.01325000000001 181.72875Q53.315750000000016 182.124 52.40125000000002 182.124Q51.486750000000015 182.124 50.78925000000002 181.72875Q50.09175000000002 181.3335 49.71200000000002 180.61275Q49.332250000000016 179.892 49.332250000000016 178.9465Z M61.25725000000002 179.21V173.94Q61.25725000000002 172.6225 62.086500000000015 171.82425Q62.91575000000002 171.026 64.27975000000002 171.026Q65.17875000000002 171.026 65.86075000000002 171.39025Q66.54275000000001 171.7545 66.92250000000001 172.40550000000002Q67.30225000000002 173.0565 67.30225000000002 173.8935V174.343Q67.30225000000002 174.498 67.14725000000001 174.498H66.63575000000002Q66.48075000000001 174.498 66.48075000000001 174.343V173.8935Q66.48075000000001 172.9325 65.87625000000003 172.3435Q65.27175000000003 171.7545 64.27975000000002 171.7545Q63.28775000000002 171.7545 62.683250000000015 172.35125Q62.07875000000002 172.948 62.07875000000002 173.909V179.241Q62.07875000000002 180.202 62.69100000000002 180.79874999999998Q63.30325000000002 181.3955 64.29525000000002 181.3955Q65.28725000000001 181.3955 65.88400000000001 180.81425000000002Q66.48075000000001 180.233 66.48075000000001 179.2875V177.3965Q66.48075000000001 177.3345 66.41875000000002 177.3345H64.48125000000002Q64.32625000000002 177.3345 64.32625000000002 177.1795V176.7765Q64.32625000000002 176.6215 64.48125000000002 176.6215H67.14725000000001Q67.30225000000002 176.6215 67.30225000000002 176.7765V179.179Q67.30225000000002 180.5275 66.47300000000001 181.32575Q65.64375000000003 182.124 64.27975000000002 182.124Q62.91575000000002 182.124 62.086500000000015 181.32575Q61.25725000000002 180.5275 61.25725000000002 179.21Z M73.08925000000002 178.9465V171.305Q73.08925000000002 171.15 73.24425000000001 171.15H73.75575000000002Q73.91075000000001 171.15 73.91075000000001 171.305V179.0085Q73.91075000000001 180.078 74.52300000000001 180.73675Q75.13525000000001 181.3955 76.15825000000001 181.3955Q77.16575000000002 181.3955 77.78575000000001 180.73675Q78.40575000000001 180.078 78.40575000000001 179.0085V171.305Q78.40575000000001 171.15 78.56075000000001 171.15H79.07225000000001Q79.22725000000001 171.15 79.22725000000001 171.305V178.9465Q79.22725000000001 179.892 78.84750000000001 180.61275Q78.46775000000001 181.3335 77.77025 181.72875Q77.07275000000001 182.124 76.15825000000001 182.124Q75.24375000000002 182.124 74.54625000000001 181.72875Q73.84875000000001 181.3335 73.46900000000002 180.61275Q73.08925000000002 179.892 73.08925000000002 178.9465Z M90.98175 171.8785H86.22325000000001Q86.16125000000001 171.8785 86.16125000000001 171.9405V176.141Q86.16125000000001 176.203 86.22325000000001 176.203H89.47825000000002Q89.63325 176.203 89.63325 176.358V176.7765Q89.63325 176.9315 89.47825000000002 176.9315H86.22325000000001Q86.16125000000001 176.9315 86.16125000000001 176.9935V181.2095Q86.16125000000001 181.2715 86.22325000000001 181.2715H90.98175Q91.13675 181.2715 91.13675 181.4265V181.845Q91.13675 182.0 90.98175 182.0H85.49475000000001Q85.33975000000001 182.0 85.33975000000001 181.845V171.305Q85.33975000000001 171.15 85.49475000000001 171.15H90.98175Q91.13675 171.15 91.13675 171.305V171.7235Q91.13675 171.8785 90.98175 171.8785Z M96.78425000000001 181.845V171.305Q96.78425000000001 171.15 96.93925000000002 171.15H97.45075000000001Q97.60575000000001 171.15 97.60575000000001 171.305V181.2095Q97.60575000000001 181.2715 97.66775000000001 181.2715H102.25575000000002Q102.41075000000002 181.2715 102.41075000000002 181.4265V181.845Q102.41075000000002 182.0 102.25575000000002 182.0H96.93925000000002Q96.78425000000001 182.0 96.78425000000001 181.845Z M114.09325000000001 181.845V171.305Q114.09325000000001 171.15 114.24825000000001 171.15H117.17775000000002Q118.49525000000001 171.15 119.26250000000002 171.925Q120.02975 172.7 120.02975 174.033V179.117Q120.02975 180.45 119.26250000000002 181.225Q118.49525000000001 182.0 117.17775000000002 182.0H114.24825000000001Q114.09325000000001 182.0 114.09325000000001 181.845ZM114.97675000000001 181.2715H117.19325Q118.10775000000001 181.2715 118.65025000000001 180.67475000000002Q119.19275000000002 180.078 119.19275000000002 179.0705V174.095Q119.19275000000002 173.0565 118.65800000000002 172.4675Q118.12325000000001 171.8785 117.19325 171.8785H114.97675000000001Q114.91475000000001 171.8785 114.91475000000001 171.9405V181.2095Q114.91475000000001 181.2715 114.97675000000001 181.2715Z M131.50525000000002 171.8785H126.74675Q126.68475000000001 171.8785 126.68475000000001 171.9405V176.141Q126.68475000000001 176.203 126.74675 176.203H130.00175000000002Q130.15675000000002 176.203 130.15675000000002 176.358V176.7765Q130.15675000000002 176.9315 130.00175000000002 176.9315H126.74675Q126.68475000000001 176.9315 126.68475000000001 176.9935V181.2095Q126.68475000000001 181.2715 126.74675 181.2715H131.50525000000002Q131.66025000000002 181.2715 131.66025000000002 181.4265V181.845Q131.66025000000002 182.0 131.50525000000002 182.0H126.01825000000001Q125.86325000000001 182.0 125.86325000000001 181.845V171.305Q125.86325000000001 171.15 126.01825000000001 171.15H131.50525000000002Q131.66025000000002 171.15 131.66025000000002 171.305V171.7235Q131.66025000000002 171.8785 131.50525000000002 171.8785Z M149.44975000000002 171.8785H144.69125000000003Q144.62925 171.8785 144.62925 171.9405V176.141Q144.62925 176.203 144.69125000000003 176.203H147.94625000000002Q148.10125000000002 176.203 148.10125000000002 176.358V176.7765Q148.10125000000002 176.9315 147.94625000000002 176.9315H144.69125000000003Q144.62925 176.9315 144.62925 176.9935V181.2095Q144.62925 181.2715 144.69125000000003 181.2715H149.44975000000002Q149.60475000000002 181.2715 149.60475000000002 181.4265V181.845Q149.60475000000002 182.0 149.44975000000002 182.0H143.96275Q143.80775000000003 182.0 143.80775000000003 181.845V171.305Q143.80775000000003 171.15 143.96275 171.15H149.44975000000002Q149.60475000000002 171.15 149.60475000000002 171.305V171.7235Q149.60475000000002 171.8785 149.44975000000002 171.8785Z M160.72375000000002 174.0485V179.117Q160.72375000000002 180.3415 160.04950000000002 181.14749999999998Q159.37525000000002 181.9535 158.22825000000003 182.1085Q158.16625000000002 182.1085 158.16625000000002 182.1705V183.705Q158.16625000000002 183.86 158.01125000000002 183.86H157.49975Q157.34475000000003 183.86 157.34475000000003 183.705V182.155Q157.34475000000003 182.093 157.28275000000002 182.093Q156.15125 181.938 155.47700000000003 181.13975Q154.80275000000003 180.3415 154.80275000000003 179.117V174.0485Q154.80275000000003 173.165 155.17475000000002 172.47525000000002Q155.54675000000003 171.7855 156.22100000000003 171.40575Q156.89525000000003 171.026 157.76325000000003 171.026Q158.63125000000002 171.026 159.30550000000002 171.40575Q159.97975000000002 171.7855 160.35175000000004 172.47525000000002Q160.72375000000002 173.165 160.72375000000002 174.0485ZM159.90225 174.002Q159.90225 172.9945 159.3055 172.3745Q158.70875 171.7545 157.76325000000003 171.7545Q156.80225000000002 171.7545 156.21325000000002 172.3745Q155.62425000000002 172.9945 155.62425000000002 174.002V179.148Q155.62425000000002 180.1555 156.21325000000002 180.7755Q156.80225000000002 181.3955 157.76325000000003 181.3955Q158.70875 181.3955 159.3055 180.7755Q159.90225 180.1555 159.90225 179.148Z M166.37125 178.9465V171.305Q166.37125 171.15 166.52625 171.15H167.03775000000002Q167.19275000000002 171.15 167.19275000000002 171.305V179.0085Q167.19275000000002 180.078 167.805 180.73675Q168.41725000000002 181.3955 169.44025000000002 181.3955Q170.44775 181.3955 171.06775000000002 180.73675Q171.68775000000002 180.078 171.68775000000002 179.0085V171.305Q171.68775000000002 171.15 171.84275000000002 171.15H172.35425Q172.50925 171.15 172.50925 171.305V178.9465Q172.50925 179.892 172.1295 180.61275Q171.74975 181.3335 171.05225000000002 181.72875Q170.35475000000002 182.124 169.44025000000002 182.124Q168.52575000000002 182.124 167.82825000000003 181.72875Q167.13075 181.3335 166.751 180.61275Q166.37125 179.892 166.37125 178.9465Z M178.62175000000002 181.845V171.305Q178.62175000000002 171.15 178.77675 171.15H179.28825Q179.44325 171.15 179.44325 171.305V181.845Q179.44325 182.0 179.28825 182.0H178.77675Q178.62175000000002 182.0 178.62175000000002 181.845Z M191.60075 174.0795Q191.60075 175.397 190.8645 176.1875Q190.12824999999998 176.978 188.93475 176.978H186.47025Q186.40824999999998 176.978 186.40824999999998 177.04V181.845Q186.40824999999998 182.0 186.25324999999998 182.0H185.74175Q185.58675 182.0 185.58675 181.845V171.274Q185.58675 171.119 185.74175 171.119H188.93475Q190.12824999999998 171.119 190.8645 171.93275Q191.60075 172.7465 191.60075 174.0795ZM190.79475 174.095Q190.79475 173.072 190.26 172.4675Q189.72525 171.863 188.85725 171.863H186.47025Q186.40824999999998 171.863 186.40824999999998 171.925V176.234Q186.40824999999998 176.296 186.47025 176.296H188.85725Q189.72525 176.296 190.26 175.6915Q190.79475 175.087 190.79475 174.095Z M201.97574999999998 181.8605 201.41774999999998 179.8145Q201.40224999999998 179.768 201.34024999999997 179.768H197.43425Q197.37224999999998 179.768 197.35674999999998 179.8145L196.81425 181.8605Q196.78324999999998 182.0 196.64374999999998 182.0H196.11674999999997Q196.03924999999998 182.0 196.0005 181.95350000000002Q195.96175 181.907 195.97724999999997 181.8295L198.89124999999999 171.274Q198.92225 171.15 199.06175 171.15H199.71274999999997Q199.85224999999997 171.15 199.88324999999998 171.274L202.79725 181.8295L202.81275 181.876Q202.81275 182.0 202.65775 182.0H202.14624999999998Q202.00674999999998 182.0 201.97574999999998 181.8605ZM197.63574999999997 179.086H201.13875Q201.16975 179.086 201.19299999999998 179.06275Q201.21624999999997 179.0395 201.20074999999997 179.024L199.41824999999997 172.359Q199.40274999999997 172.328 199.37949999999998 172.328Q199.35625 172.328 199.34074999999999 172.359L197.57375 179.024Q197.55825 179.0395 197.58149999999998 179.06275Q197.60474999999997 179.086 197.63574999999997 179.086Z M214.04025 171.15H214.58274999999998Q214.73774999999998 171.15 214.73774999999998 171.305V181.845Q214.73774999999998 182.0 214.58274999999998 182.0H214.07125Q213.91625 182.0 213.91625 181.845V172.9015Q213.91625 172.855 213.88524999999998 172.84724999999997Q213.85424999999998 172.8395 213.83874999999998 172.886L211.62224999999998 176.885Q211.57575 176.9935 211.43625 176.9935H211.31224999999998Q211.20374999999999 176.9935 211.12625 176.885L208.89425 172.917Q208.87875 172.8705 208.84775 172.87824999999998Q208.81674999999998 172.886 208.81674999999998 172.9325V181.845Q208.81674999999998 182.0 208.66174999999998 182.0H208.15025Q207.99525 182.0 207.99525 181.845V171.305Q207.99525 171.15 208.15025 171.15H208.67725Q208.78574999999998 171.15 208.86325 171.2585L211.32774999999998 175.6295Q211.34324999999998 175.645 211.37425 175.645Q211.40525 175.645 211.42075 175.6295L213.85424999999998 171.2585Q213.93175 171.15 214.04025 171.15Z M226.58525 171.8785H221.82675Q221.76475 171.8785 221.76475 171.9405V176.141Q221.76475 176.203 221.82675 176.203H225.08175Q225.23675 176.203 225.23675 176.358V176.7765Q225.23675 176.9315 225.08175 176.9315H221.82675Q221.76475 176.9315 221.76475 176.9935V181.2095Q221.76475 181.2715 221.82675 181.2715H226.58525Q226.74025 181.2715 226.74025 181.4265V181.845Q226.74025 182.0 226.58525 182.0H221.09824999999998Q220.94325 182.0 220.94325 181.845V171.305Q220.94325 171.15 221.09824999999998 171.15H226.58525Q226.74025 171.15 226.74025 171.305V171.7235Q226.74025 171.8785 226.58525 171.8785Z M237.95225 171.15H238.46375Q238.61875 171.15 238.61875 171.305V181.845Q238.61875 182.0 238.46375 182.0H237.90575Q237.76624999999999 182.0 237.71975 181.8915L233.27125 172.9945Q233.24025 172.9635 233.21699999999998 172.97125Q233.19375 172.97899999999998 233.19375 173.0255V181.845Q233.19375 182.0 233.03875 182.0H232.52725Q232.37225 182.0 232.37225 181.845V171.305Q232.37225 171.15 232.52725 171.15H233.08525Q233.22475 171.15 233.27125 171.2585L237.71975 180.1245Q237.75075 180.1555 237.774 180.14774999999997Q237.79725 180.14 237.79725 180.0935V171.305Q237.79725 171.15 237.95225 171.15Z M250.34225 171.305V171.7235Q250.34225 171.8785 250.18725 171.8785H247.61425Q247.55225 171.8785 247.55225 171.9405V181.845Q247.55225 182.0 247.39724999999999 182.0H246.88575Q246.73075 182.0 246.73075 181.845V171.9405Q246.73075 171.8785 246.66875 171.8785H244.23525Q244.08025 171.8785 244.08025 171.7235V171.305Q244.08025 171.15 244.23525 171.15H250.18725Q250.34225 171.15 250.34225 171.305Z M255.47825 179.055V174.095Q255.47825 173.196 255.858 172.49849999999998Q256.23775 171.801 256.93525 171.4135Q257.63275 171.026 258.53175 171.026Q259.44625 171.026 260.1515 171.4135Q260.85675 171.801 261.24424999999997 172.49849999999998Q261.63175 173.196 261.63175 174.095V179.055Q261.63175 179.9695 261.24424999999997 180.667Q260.85675 181.3645 260.1515 181.74425Q259.44625 182.124 258.53175 182.124Q257.15225 182.124 256.31525 181.27925Q255.47825 180.4345 255.47825 179.055ZM260.81025 179.1015V174.0795Q260.81025 173.041 260.1825 172.39775Q259.55475 171.7545 258.53175 171.7545Q257.52425 171.7545 256.91200000000003 172.39775Q256.29975 173.041 256.29975 174.0795V179.1015Q256.29975 180.1245 256.91975 180.76Q257.53974999999997 181.3955 258.53175 181.3955Q259.55475 181.3955 260.1825 180.76Q260.81025 180.1245 260.81025 179.1015Z M266.90725 179.365V178.9465Q266.90725 178.7915 267.06224999999995 178.7915H267.54274999999996Q267.69775 178.7915 267.69775 178.9465V179.3185Q267.69775 180.2485 268.3255 180.822Q268.95324999999997 181.3955 270.00724999999994 181.3955Q271.01475 181.3955 271.596 180.86075Q272.17724999999996 180.326 272.17724999999996 179.427Q272.17724999999996 178.8535 271.91374999999994 178.42725000000002Q271.65024999999997 178.001 271.14649999999995 177.6445Q270.64275 177.288 269.71274999999997 176.792Q268.72074999999995 176.2495 268.19374999999997 175.86975Q267.66675 175.49 267.34124999999995 174.95525Q267.01574999999997 174.4205 267.01574999999997 173.63Q267.01574999999997 172.4055 267.78299999999996 171.71575Q268.55024999999995 171.026 269.85224999999997 171.026Q271.26275 171.026 272.08425 171.79325Q272.90574999999995 172.5605 272.90574999999995 173.8315V174.2035Q272.90574999999995 174.3585 272.75075 174.3585H272.23924999999997Q272.08424999999994 174.3585 272.08424999999994 174.2035V173.8625Q272.08424999999994 172.9015 271.47974999999997 172.328Q270.87525 171.7545 269.83675 171.7545Q268.89124999999996 171.7545 268.3565 172.24275Q267.82174999999995 172.731 267.82174999999995 173.63Q267.82174999999995 174.2035 268.06199999999995 174.591Q268.30224999999996 174.9785 268.7595 175.2885Q269.21675 175.5985 270.16225 176.11Q271.20074999999997 176.6835 271.782 177.102Q272.36325 177.5205 272.681 178.05525Q272.99875 178.59 272.99875 179.3495Q272.99875 180.605 272.18499999999995 181.3645Q271.37125 182.124 269.99174999999997 182.124Q268.58124999999995 182.124 267.74424999999997 181.3645Q266.90725 180.605 266.90725 179.365Z"/>
</svg>
